<svg enable-background="new 0 0 64 64" viewBox="0 0 64 64" xmlns="http://www.w3.org/2000/svg"><g clip-rule="evenodd" fill="#0073ec" fill-rule="evenodd"><path d="m32 0c-17.7 0-32 14.3-32 32s14.3 32 32 32 32-14.3 32-32-14.3-32-32-32zm0 14.2c3 0 5.4 2.4 5.4 5.4s-2.4 5.4-5.4 5.4-5.4-2.4-5.4-5.4 2.4-5.4 5.4-5.4zm7.2 32.8c0 .9-.7 1.5-1.5 1.5h-11.4c-.9 0-1.5-.7-1.5-1.5v-3.1c0-.9.7-1.5 1.5-1.5h1.5v-8.3h-1.5c-.9 0-1.5-.7-1.5-1.5v-3.1c0-.9.7-1.5 1.5-1.5h8.3c.9 0 1.5.7 1.5 1.5v12.9h1.5c.9 0 1.5.7 1.5 1.5v3.1z" opacity=".35"/><path d="m32 25c3 0 5.4-2.4 5.4-5.4s-2.4-5.4-5.4-5.4-5.4 2.4-5.4 5.4 2.4 5.4 5.4 5.4zm5.7 17.3h-1.5v-12.9c0-.9-.7-1.5-1.5-1.5h-8.3c-.9 0-1.5.7-1.5 1.5v3.1c0 .9.7 1.5 1.5 1.5h1.5v8.3h-1.5c-.9 0-1.5.7-1.5 1.5v3.2c0 .9.7 1.5 1.5 1.5h11.4c.9 0 1.5-.7 1.5-1.5v-3.1c-.1-.9-.8-1.6-1.6-1.6z" opacity=".95"/></g></svg>