<svg enable-background="new 0 0 64 64" viewBox="0 0 64 64" xmlns="http://www.w3.org/2000/svg"><g clip-rule="evenodd" fill="#f59d00" fill-rule="evenodd"><path d="m32 0c-17.7 0-32 14.3-32 32s14.3 32 32 32 32-14.3 32-32-14.3-32-32-32zm0 48.5c-2.3 0-4.1-1.8-4.1-4.1s1.8-4.1 4.1-4.1 4.1 1.8 4.1 4.1-1.8 4.1-4.1 4.1zm4.9-30.7-1.7 16.5c-.1 1.1-1 1.9-2.1 1.9h-2.5c-1.1 0-1.9-.8-2.1-1.9l-1.7-16.5c-.1-1.1.7-2.1 1.8-2.3h.2 5.8c1.1 0 2.1.9 2.1 2.1.2 0 .2.1.2.2z" opacity=".35"/><path d="m34.9 15.5h-5.8c-1.1 0-2.1.9-2.1 2.1v.2l1.7 16.5c.1 1.1 1 1.9 2.1 1.9h2.5c1.1 0 1.9-.8 2.1-1.9l1.7-16.5c.1-1.1-.7-2.1-1.8-2.3-.3 0-.4 0-.4 0zm-2.9 24.8c-2.3 0-4.1 1.8-4.1 4.1s1.8 4.1 4.1 4.1 4.1-1.8 4.1-4.1-1.8-4.1-4.1-4.1z" opacity=".95"/></g></svg>